<?xml version="1.0" encoding="UTF-8"?>
<svg width="160px" height="160px" viewBox="0 0 160 160" version="1.1" xmlns="http://www.w3.org/2000/svg" xmlns:xlink="http://www.w3.org/1999/xlink">
    <title>Icon</title>
    <g id="Custom" stroke="none" stroke-width="1" fill="none" fill-rule="evenodd">
        <g id="Icon">
            <g id="music-note" transform="translate(51.000000, 32.000000)" fill="#000000" fill-rule="nonzero">
                <path d="M58,21.5192701 L58,3.74012322 C58,2.47920867 57.55628,1.49412523 56.66884,0.784872901 C55.7814,0.0755560121 54.735484,-0.152985153 53.5310918,0.0992494041 L29.0950759,5.39510988 C25.9573602,6.08860965 24.3885023,7.74359631 24.3885023,10.3600699 L24.4836269,62.940807 C24.7371626,65.3366156 23.7546305,66.7551848 21.5360305,67.1965146 L13.9769852,68.7568891 C9.22289799,69.7656337 5.70487866,71.4521287 3.4229272,73.8163741 C1.14097573,76.1806196 0,79.1438043 0,82.7059282 C0,86.3311076 1.25982467,89.2864257 3.779474,91.5718825 C6.29912333,93.8572942 9.53985012,95 13.5016543,95 C15.2447937,95 17.1226523,94.6611264 19.1352301,93.9833792 C21.147808,93.305632 23.0494559,92.2259686 24.8401737,90.7443892 C26.6308916,89.2627775 28.0967384,87.3162071 29.2377141,84.9046782 C30.3786898,82.4931493 30.9491777,79.5693653 30.9491777,76.1333264 L30.9491777,32.8675979 C30.9491777,31.638253 31.1155727,30.810792 31.4483627,30.3852148 C31.7811527,29.9596376 32.5180356,29.6207639 33.6590113,29.3685939 L55.3851936,24.640116 C56.1775415,24.4509562 56.8114457,24.0805452 57.2869064,23.528883 C57.7623021,22.9772207 58,22.3073498 58,21.5192701 Z" id="Path"></path>
            </g>
            <circle id="Oval" stroke="#000000" stroke-width="15" cx="80" cy="80" r="72.5"></circle>
        </g>
    </g>
</svg>