<?xml version="1.0" encoding="UTF-8" standalone="yes"?><svg xmlns="http://www.w3.org/2000/svg" xmlns:xlink="http://www.w3.org/1999/xlink" width="160px" height="160px" viewBox="0 0 160 160" version="1.1" style="zoom: 1;"><title>Icon</title><g id="Custom" stroke="none" stroke-width="1" fill="none" fill-rule="evenodd"><g id="Icon"><g id="music-note" transform="translate(51.000000, 32.000000)" fill="#000000" fill-rule="nonzero"><path d="M58,21.51927 L58,3.740123 C58,2.479209 57.556278,1.494125 56.668839,0.784873 C55.781399,0.075556 54.735485,-0.152985 53.531094,0.099249 L29.095076,5.39511 C25.957359,6.08861 24.388502,7.743596 24.388502,10.36007 L24.483627,62.940807 C24.737164,65.336617 23.754631,66.755188 21.53603,67.196518 L13.976985,68.756889 C9.222898,69.765633 5.704879,71.452126 3.422927,73.816376 C1.140976,76.180618 0,79.143806 0,82.705925 C0,86.331108 1.259825,89.286423 3.779474,91.571884 C6.299123,93.857292 9.53985,95 13.501655,95 C15.244794,95 17.122652,94.661125 19.135231,93.983376 C21.147808,93.305634 23.049456,92.225967 24.840174,90.744392 C26.630892,89.262779 28.096739,87.316208 29.237715,84.904678 C30.378691,82.493149 30.949177,79.569366 30.949177,76.133324 L30.949177,32.867599 C30.949177,31.638252 31.115572,30.810793 31.448362,30.385214 C31.781153,29.959637 32.518036,29.620764 33.659012,29.368593 L55.385193,24.640116 C56.17754,24.450956 56.811447,24.080545 57.286907,23.528883 C57.762302,22.977221 58,22.30735 58,21.51927" id="Path" fill="#1cd760"></path></g><circle id="Oval" stroke="#000000" stroke-width="15" cx="80" cy="80" r="72.5"></circle></g></g></svg>