<?xml version="1.0" encoding="UTF-8"?>
<svg width="182px" height="182px" viewBox="0 0 182 182" version="1.1" xmlns="http://www.w3.org/2000/svg" xmlns:xlink="http://www.w3.org/1999/xlink">
    <title>music note</title>
    <g id="Custom" stroke="none" stroke-width="1" fill="none" fill-rule="evenodd">
        <g id="music-note">
            <path d="M120,64.5192701 L120,46.7401232 C120,45.4792087 119.55628,44.4941252 118.66884,43.7848729 C117.7814,43.075556 116.735484,42.8470148 115.531092,43.0992494 L91.0950759,48.3951099 C87.9573602,49.0886097 86.3885023,50.7435963 86.3885023,53.3600699 L86.4836269,105.940807 C86.7371626,108.336616 85.7546305,109.755185 83.5360305,110.196515 L75.9769852,111.756889 C71.222898,112.765634 67.7048787,114.452129 65.4229272,116.816374 C63.1409757,119.18062 62,122.143804 62,125.705928 C62,129.331108 63.2598247,132.286426 65.779474,134.571883 C68.2991233,136.857294 71.5398501,138 75.5016543,138 C77.2447937,138 79.1226523,137.661126 81.1352301,136.983379 C83.147808,136.305632 85.0494559,135.225969 86.8401737,133.744389 C88.6308916,132.262777 90.0967384,130.316207 91.2377141,127.904678 C92.3786898,125.493149 92.9491777,122.569365 92.9491777,119.133326 L92.9491777,75.8675979 C92.9491777,74.638253 93.1155727,73.810792 93.4483627,73.3852148 C93.7811527,72.9596376 94.5180356,72.6207639 95.6590113,72.3685939 L117.385194,67.640116 C118.177541,67.4509562 118.811446,67.0805452 119.286906,66.528883 C119.762302,65.9772207 120,65.3073498 120,64.5192701 Z" id="Path" fill="#FFFFFF" fill-rule="nonzero"></path>
            <circle id="Oval" stroke="#FFFFFF" stroke-width="15" cx="91" cy="91" r="83.5"></circle>
        </g>
    </g>
</svg>