<?xml version="1.0" encoding="UTF-8"?>
<svg width="3e3mm" height="3e3mm" version="1.1" viewBox="0 0 10629.921 10629.921" xmlns="http://www.w3.org/2000/svg">
 <g transform="translate(3710.8 9990.2)">
  <circle cx="814.03" cy="-4675.3" r="3466.2" fill="#e8e8e8" fill-rule="evenodd"/>
  <path transform="translate(-3710.8 -9990.2)" d="m4524.8 1943c-894.3 0-1752 355.26-2384.3 987.63s-987.63 1490-987.63 2384.3 355.26 1752 987.63 2384.3 1490 987.63 2384.3 987.63 1752-355.26 2384.3-987.63 987.63-1490 987.63-2384.3-355.26-1752-987.63-2384.3-1490-987.63-2384.3-987.63zm0 2580.8c209.84-3e-4 411.08 83.356 559.46 231.73 148.38 148.38 231.73 349.62 231.73 559.45 3e-4 209.84-83.357 411.08-231.73 559.46-148.38 148.38-349.62 231.73-559.46 231.73-209.84-2e-4 -411.08-83.358-559.45-231.73-148.38-148.38-231.73-349.62-231.73-559.46 2e-4 -209.84 83.357-411.08 231.73-559.45s349.62-231.73 559.45-231.73z" fill="#303c4a" fill-rule="evenodd"/>
  <circle cx="814.03" cy="-4675.3" r="2743.5" fill="none" stroke="#212832" stroke-linecap="round" stroke-linejoin="round" stroke-width="32.966"/>
  <circle cx="814.03" cy="-4675.3" r="2331.6" fill="none" stroke="#212832" stroke-linecap="round" stroke-linejoin="round" stroke-width="32.966"/>
  <circle cx="814.03" cy="-4675.3" r="1844.7" fill="none" stroke="#212832" stroke-linecap="round" stroke-linejoin="round" stroke-width="32.966"/>
  <circle cx="4949.6" cy="-6806.6" r="910.84" fill="#151513" fill-rule="evenodd"/>
  <circle cx="5617.3" cy="-6727.5" r="132.37" fill="#4c4b49" fill-rule="evenodd"/>
  <circle cx="5617.3" cy="-6727.5" r="82.734" fill="#b4b4b4" fill-rule="evenodd"/>
  <path d="m5610-6859.6a132.37 132.37 0 0 0 -125.04 132.13 132.37 132.37 0 0 0 125.04 132v-264.14z" fill-rule="evenodd" opacity=".5"/>
  <path transform="translate(-3710.8 -9990.2)" d="m4536.8 1849.4v2674.8c207.68 3.1453 405.79 87.831 551.58 235.78 145.78 147.95 227.54 347.28 227.63 554.99-0.1333 207.67-81.913 406.97-227.69 554.88-145.78 147.91-343.87 232.57-551.52 235.71v2675.1c917.13-3.1704 1795.6-369.69 2443.1-1019.3 647.43-649.6 1011-1529.3 1011.1-2446.4-0.153-917.11-363.76-1796.8-1011.2-2446.3-647.42-649.56-1525.9-1016.1-2443-1019.2z" fill="#fff" opacity=".237"/>
  <g transform="matrix(7.0178 4.1282 -4.1282 7.0178 24232 4997.1)">
   <rect x="-2785.2" y="-117.17" width="18.291" height="32.11" ry="2.2009" fill="#606160" fill-rule="evenodd"/>
   <rect x="-2788.2" y="-11.52" width="24.109" height="33.346" ry=".025414" fill="#5f5f5e" fill-rule="evenodd"/>
   <circle cx="-2777.2" cy="-47.8" r="51.752" fill="#cecbc6" fill-rule="evenodd"/>
   <circle cx="-2777.2" cy="-47.8" r="28.638" fill="none" stroke="#161614" stroke-linecap="round" stroke-linejoin="round" stroke-width="16.584"/>
   <rect x="-2802.7" y="-183.02" width="53.246" height="74.916" ry="2.4437" fill="#cecbc6" fill-rule="evenodd"/>
   <path d="m-2775.7 51.648c-3.9309 214.01 197.74 228.69 24.286 424.29" fill="none" stroke="#131110" stroke-width="18"/>
   <path d="m-2777 51.625c-1.5145 209.15 197.86 231.8 25.732 424.47l6.5547 5.8125c43.975-49.59 65.006-88.539 70.965-123.16 5.9593-34.623-3.7495-63.964-18.268-92.168-29.036-56.408-76.63-110.59-74.717-214.76z" fill="#7b7b7b" fill-rule="evenodd" opacity=".5"/>
   <rect x="-2789.8" y="19.06" width="27.36" height="39.24" ry="4.6284" fill="#cecbc6" fill-rule="evenodd"/>
   <path d="m-2800.2-183.02c-1.3538 0-2.4433 1.0896-2.4433 2.4434v70.029c0 1.3538 1.0895 2.4434 2.4433 2.4434h15.035v9.2148a51.752 51.752 0 0 0 -43.719 51.09 51.752 51.752 0 0 0 40.705 50.525v17.461c-0.9888 0.84759-1.6269 2.0915-1.6269 3.502v29.984c0 2.5642 2.0647 4.6289 4.6289 4.6289h8.0605v-241.32h-23.084z" fill-rule="evenodd" opacity=".5"/>
   <g transform="matrix(.75991 .65003 -.65003 .75991 -406.99 1828.2)" fill-rule="evenodd">
    <g transform="translate(115.91 34.394)">
     <rect x="-2795.6" y="468.93" width="38.857" height="87.885" ry="2.2009" fill="#262221"/>
     <rect x="-2790.4" y="460.89" width="28.51" height="12.009" ry="2.0414" fill="#cbc7c4"/>
     <rect x="-2788.4" y="521.41" width="8.1423" height="21.949" ry="4.0711" fill="#c4c1bc"/>
     <rect x="-2772.1" y="521.41" width="8.1423" height="21.949" ry="4.0711" fill="#c4c1bc"/>
     <path d="m-2776.2 552.31c-0.5039 0-0.91 0.78977-0.91 1.7714v2.7396h1.8201v-2.7396c0-0.98161-0.4062-1.7714-0.9101-1.7714z" fill="#4c4b49"/>
    </g>
    <path d="m-2672.5 495.28c-1.1309 0-2.041 0.91005-2.041 2.041v6.0059h-2.9726c-1.2193 0-2.1993 0.98189-2.1993 2.2012v83.484c0 1.2193 0.98 2.1992 2.1993 2.1992h17.164v-95.932z" opacity=".5"/>
   </g>
  </g>
  <path transform="translate(-3710.8 -9990.2)" d="m4524.8 4523.8a791.19 791.19 0 0 0 -791.19 791.19 791.19 791.19 0 0 0 791.19 791.19 791.19 791.19 0 0 0 791.19 -791.19 791.19 791.19 0 0 0 -791.19 -791.19zm0 417.18a374.01 374.01 0 0 1 374.01 374.01 374.01 374.01 0 0 1 -374.01 374.01 374.01 374.01 0 0 1 -374.01 -374.01 374.01 374.01 0 0 1 374.01 -374.01z" fill="#fa5a3a" fill-rule="evenodd"/>
  <path transform="translate(-3710.8 -9990.2)" d="m4524.8 4147c-309.76 3e-4 -606.83 123.05-825.86 342.08s-342.08 516.1-342.08 825.86c-2e-4 309.76 123.05 606.83 342.08 825.86s516.1 342.08 825.86 342.08c309.76 2e-4 606.83-123.05 825.86-342.08s342.08-516.1 342.08-825.86c-3e-4 -309.76-123.05-606.83-342.08-825.86s-516.1-342.08-825.86-342.08zm0 376.76c209.84-3e-4 411.08 83.356 559.46 231.73 148.38 148.38 231.73 349.62 231.73 559.45 3e-4 209.84-83.357 411.08-231.73 559.46-148.38 148.38-349.62 231.73-559.46 231.73-209.84-2e-4 -411.08-83.358-559.45-231.73-148.38-148.38-231.73-349.62-231.73-559.46 2e-4 -209.84 83.357-411.08 231.73-559.45s349.62-231.73 559.45-231.73z" fill="#212832" fill-rule="evenodd"/>
 </g>
</svg>
