<?xml version="1.0" encoding="UTF-8"?>
<!--Generator: Apple Native CoreSVG 149-->
<!DOCTYPE svg
PUBLIC "-//W3C//DTD SVG 1.1//EN"
       "http://www.w3.org/Graphics/SVG/1.1/DTD/svg11.dtd">
<svg version="1.1" xmlns="http://www.w3.org/2000/svg" xmlns:xlink="http://www.w3.org/1999/xlink" width="3300" height="2200">
 <!--glyph: "uni10046A.medium", point size: 100.000000, font version: "Version 16.0d12e3", template writer version: "8"-->
 <g id="Notes">
  <rect height="2200" id="artboard" style="fill:white;opacity:1" width="3300" x="0" y="0"/>
  <line id="" style="fill:none;stroke:black;opacity:1;stroke-width:0.5;" x1="263" x2="3036" y1="292" y2="292"/>
  <text style="stroke:none;fill:black;font-family:-apple-system,&quot;SF Pro Display&quot;,&quot;SF Pro Text&quot;,Helvetica,sans-serif;font-weight:bold;" transform="matrix(1 0 0 1 263 322)">Weight/Scale Variations</text>
  <text style="stroke:none;fill:black;font-family:-apple-system,&quot;SF Pro Display&quot;,&quot;SF Pro Text&quot;,Helvetica,sans-serif;text-anchor:middle;" transform="matrix(1 0 0 1 559.711 322)">Ultralight</text>
  <text style="stroke:none;fill:black;font-family:-apple-system,&quot;SF Pro Display&quot;,&quot;SF Pro Text&quot;,Helvetica,sans-serif;text-anchor:middle;" transform="matrix(1 0 0 1 856.422 322)">Thin</text>
  <text style="stroke:none;fill:black;font-family:-apple-system,&quot;SF Pro Display&quot;,&quot;SF Pro Text&quot;,Helvetica,sans-serif;text-anchor:middle;" transform="matrix(1 0 0 1 1153.13 322)">Light</text>
  <text style="stroke:none;fill:black;font-family:-apple-system,&quot;SF Pro Display&quot;,&quot;SF Pro Text&quot;,Helvetica,sans-serif;text-anchor:middle;" transform="matrix(1 0 0 1 1449.84 322)">Regular</text>
  <text style="stroke:none;fill:black;font-family:-apple-system,&quot;SF Pro Display&quot;,&quot;SF Pro Text&quot;,Helvetica,sans-serif;text-anchor:middle;" transform="matrix(1 0 0 1 1746.56 322)">Medium</text>
  <text style="stroke:none;fill:black;font-family:-apple-system,&quot;SF Pro Display&quot;,&quot;SF Pro Text&quot;,Helvetica,sans-serif;text-anchor:middle;" transform="matrix(1 0 0 1 2043.27 322)">Semibold</text>
  <text style="stroke:none;fill:black;font-family:-apple-system,&quot;SF Pro Display&quot;,&quot;SF Pro Text&quot;,Helvetica,sans-serif;text-anchor:middle;" transform="matrix(1 0 0 1 2339.98 322)">Bold</text>
  <text style="stroke:none;fill:black;font-family:-apple-system,&quot;SF Pro Display&quot;,&quot;SF Pro Text&quot;,Helvetica,sans-serif;text-anchor:middle;" transform="matrix(1 0 0 1 2636.69 322)">Heavy</text>
  <text style="stroke:none;fill:black;font-family:-apple-system,&quot;SF Pro Display&quot;,&quot;SF Pro Text&quot;,Helvetica,sans-serif;text-anchor:middle;" transform="matrix(1 0 0 1 2933.4 322)">Black</text>
  <line id="" style="fill:none;stroke:black;opacity:1;stroke-width:0.5;" x1="263" x2="3036" y1="1903" y2="1903"/>
  <g id="" transform="matrix(1 0 0 1 263 1933)">
   <path d="M9.24805 0.830078C13.5547 0.830078 17.1387-2.74414 17.1387-7.05078C17.1387-11.3574 13.5449-14.9316 9.23828-14.9316C4.94141-14.9316 1.36719-11.3574 1.36719-7.05078C1.36719-2.74414 4.95117 0.830078 9.24805 0.830078ZM9.24805-0.654297C5.70312-0.654297 2.87109-3.49609 2.87109-7.05078C2.87109-10.6055 5.69336-13.4473 9.23828-13.4473C12.793-13.4473 15.6348-10.6055 15.6445-7.05078C15.6543-3.49609 12.8027-0.654297 9.24805-0.654297ZM9.22852-3.62305C9.69727-3.62305 9.9707-3.93555 9.9707-4.45312L9.9707-6.31836L12.002-6.31836C12.5-6.31836 12.832-6.57227 12.832-7.04102C12.832-7.51953 12.5195-7.7832 12.002-7.7832L9.9707-7.7832L9.9707-9.81445C9.9707-10.332 9.69727-10.6543 9.22852-10.6543C8.75977-10.6543 8.50586-10.3125 8.50586-9.81445L8.50586-7.7832L6.49414-7.7832C5.97656-7.7832 5.64453-7.51953 5.64453-7.04102C5.64453-6.57227 5.99609-6.31836 6.49414-6.31836L8.50586-6.31836L8.50586-4.45312C8.50586-3.95508 8.75977-3.62305 9.22852-3.62305Z"/>
  </g>
  <g id="" transform="matrix(1 0 0 1 281.506 1933)">
   <path d="M11.709 2.91016C17.1582 2.91016 21.6699-1.61133 21.6699-7.05078C21.6699-12.5 17.1484-17.0117 11.6992-17.0117C6.25977-17.0117 1.74805-12.5 1.74805-7.05078C1.74805-1.61133 6.26953 2.91016 11.709 2.91016ZM11.709 1.25C7.09961 1.25 3.41797-2.44141 3.41797-7.05078C3.41797-11.6602 7.08984-15.3516 11.6992-15.3516C16.3086-15.3516 20-11.6602 20.0098-7.05078C20.0195-2.44141 16.3184 1.25 11.709 1.25ZM11.6797-2.66602C12.207-2.66602 12.5098-3.01758 12.5098-3.59375L12.5098-6.23047L15.3223-6.23047C15.8691-6.23047 16.25-6.51367 16.25-7.03125C16.25-7.55859 15.8887-7.86133 15.3223-7.86133L12.5098-7.86133L12.5098-10.6836C12.5098-11.25 12.207-11.6113 11.6797-11.6113C11.1621-11.6113 10.8789-11.2305 10.8789-10.6836L10.8789-7.86133L8.07617-7.86133C7.50977-7.86133 7.13867-7.55859 7.13867-7.03125C7.13867-6.51367 7.5293-6.23047 8.07617-6.23047L10.8789-6.23047L10.8789-3.59375C10.8789-3.03711 11.1621-2.66602 11.6797-2.66602Z"/>
  </g>
  <g id="" transform="matrix(1 0 0 1 304.924 1933)">
   <path d="M14.9707 5.66406C21.9336 5.66406 27.6953-0.0976562 27.6953-7.05078C27.6953-14.0137 21.9238-19.7754 14.9609-19.7754C8.00781-19.7754 2.25586-14.0137 2.25586-7.05078C2.25586-0.0976562 8.01758 5.66406 14.9707 5.66406ZM14.9707 3.84766C8.93555 3.84766 4.08203-1.01562 4.08203-7.05078C4.08203-13.0957 8.92578-17.9492 14.9609-17.9492C21.0059-17.9492 25.8594-13.0957 25.8691-7.05078C25.8789-1.01562 21.0156 3.84766 14.9707 3.84766ZM14.9414-1.38672C15.5176-1.38672 15.8594-1.77734 15.8594-2.38281L15.8594-6.13281L19.7754-6.13281C20.3711-6.13281 20.7812-6.46484 20.7812-7.02148C20.7812-7.59766 20.3906-7.93945 19.7754-7.93945L15.8594-7.93945L15.8594-11.8652C15.8594-12.4805 15.5176-12.8711 14.9414-12.8711C14.375-12.8711 14.0527-12.4609 14.0527-11.8652L14.0527-7.93945L10.1465-7.93945C9.53125-7.93945 9.13086-7.59766 9.13086-7.02148C9.13086-6.46484 9.55078-6.13281 10.1465-6.13281L14.0527-6.13281L14.0527-2.38281C14.0527-1.79688 14.375-1.38672 14.9414-1.38672Z"/>
  </g>
  <text style="stroke:none;fill:black;font-family:-apple-system,&quot;SF Pro Display&quot;,&quot;SF Pro Text&quot;,Helvetica,sans-serif;font-weight:bold;" transform="matrix(1 0 0 1 263 1953)">Design Variations</text>
  <text style="stroke:none;fill:black;font-family:-apple-system,&quot;SF Pro Display&quot;,&quot;SF Pro Text&quot;,Helvetica,sans-serif;" transform="matrix(1 0 0 1 263 1971)">Symbols are supported in up to nine weights and three scales.</text>
  <text style="stroke:none;fill:black;font-family:-apple-system,&quot;SF Pro Display&quot;,&quot;SF Pro Text&quot;,Helvetica,sans-serif;" transform="matrix(1 0 0 1 263 1989)">For optimal layout with text and other symbols, vertically align</text>
  <text style="stroke:none;fill:black;font-family:-apple-system,&quot;SF Pro Display&quot;,&quot;SF Pro Text&quot;,Helvetica,sans-serif;" transform="matrix(1 0 0 1 263 2007)">symbols with the adjacent text.</text>
  <line id="" style="fill:none;stroke:#00AEEF;stroke-width:0.5;opacity:1.0;" x1="776" x2="776" y1="1919" y2="1933"/>
  <g id="" transform="matrix(1 0 0 1 776 1933)">
   <path d="M3.31055 0.126953C3.82812 0.126953 4.08203-0.0683594 4.26758-0.605469L5.52734-4.0625L11.2891-4.0625L12.5488-0.605469C12.7344-0.0683594 12.9883 0.126953 13.4961 0.126953C14.0137 0.126953 14.3457-0.185547 14.3457-0.673828C14.3457-0.839844 14.3164-0.986328 14.2383-1.20117L9.6582-13.3887C9.43359-13.9941 9.0332-14.2871 8.4082-14.2871C7.80273-14.2871 7.39258-13.9941 7.17773-13.3984L2.59766-1.19141C2.51953-0.976562 2.49023-0.830078 2.49023-0.664062C2.49023-0.175781 2.80273 0.126953 3.31055 0.126953ZM6.00586-5.53711L8.37891-12.1094L8.42773-12.1094L10.8008-5.53711Z"/>
  </g>
  <line id="" style="fill:none;stroke:#00AEEF;stroke-width:0.5;opacity:1.0;" x1="792.836" x2="792.836" y1="1919" y2="1933"/>
  <text style="stroke:none;fill:black;font-family:-apple-system,&quot;SF Pro Display&quot;,&quot;SF Pro Text&quot;,Helvetica,sans-serif;font-weight:bold;" transform="matrix(1 0 0 1 776 1953)">Margins</text>
  <text style="stroke:none;fill:black;font-family:-apple-system,&quot;SF Pro Display&quot;,&quot;SF Pro Text&quot;,Helvetica,sans-serif;" transform="matrix(1 0 0 1 776 1971)">Leading and trailing margins on the left and right side of each symbol</text>
  <text style="stroke:none;fill:black;font-family:-apple-system,&quot;SF Pro Display&quot;,&quot;SF Pro Text&quot;,Helvetica,sans-serif;" transform="matrix(1 0 0 1 776 1989)">can be adjusted by modifying the x-location of the margin guidelines.</text>
  <text style="stroke:none;fill:black;font-family:-apple-system,&quot;SF Pro Display&quot;,&quot;SF Pro Text&quot;,Helvetica,sans-serif;" transform="matrix(1 0 0 1 776 2007)">Modifications are automatically applied proportionally to all</text>
  <text style="stroke:none;fill:black;font-family:-apple-system,&quot;SF Pro Display&quot;,&quot;SF Pro Text&quot;,Helvetica,sans-serif;" transform="matrix(1 0 0 1 776 2025)">scales and weights.</text>
  <g id="" transform="matrix(1 0 0 1 1289 1933)">
   <path d="M2.8418 1.86523L4.54102 3.57422C5.40039 4.44336 6.38672 4.38477 7.31445 3.35938L17.4902-7.85156C17.7539-7.76367 18.0273-7.7832 18.3398-7.8418L19.4043-8.03711L20.0684-7.36328L20.0293-6.80664C19.9902-6.30859 20.1172-5.92773 20.6055-5.44922L21.3672-4.70703C21.8457-4.22852 22.4609-4.19922 22.9297-4.66797L25.8398-7.58789C26.3086-8.05664 26.2891-8.65234 25.8105-9.13086L25.0391-9.89258C24.5605-10.3711 24.1895-10.5273 23.7109-10.4883L23.1348-10.4395L22.4902-11.0742L22.7344-12.1973C22.8613-12.7637 22.7051-13.2031 22.1191-13.7891L19.9219-15.9766C16.582-19.2969 12.1484-19.2188 9.25781-16.3281C8.83789-15.918 8.80859-15.3418 9.04297-14.9512C9.27734-14.5898 9.73633-14.3555 10.3809-14.5215C11.8457-14.8633 13.3691-14.9219 14.7949-13.9844L14.209-12.5293C14.0137-12.0508 13.9844-11.6504 14.1113-11.2891L3.04688-0.898438C2.06055 0.0195312 1.98242 0.996094 2.8418 1.86523ZM10.752-15.957C13.1836-17.7344 16.4746-17.4316 18.7012-15.2051L21.1328-12.793C21.3672-12.5586 21.4062-12.373 21.3379-12.0312L21.0156-10.5469L22.5195-9.0625L23.5059-9.12109C23.7598-9.13086 23.8379-9.11133 24.0332-8.91602L24.6094-8.33984L22.168-5.89844L21.5918-6.47461C21.3965-6.66992 21.3672-6.74805 21.377-7.01172L21.4453-7.98828L19.9512-9.47266L18.4277-9.21875C18.1055-9.15039 17.959-9.17969 17.7148-9.41406L15.7129-11.416C15.459-11.6504 15.4297-11.8164 15.5859-12.1875L16.4648-14.2773C14.9023-15.7324 12.8711-16.3574 10.8398-15.7617C10.6836-15.7227 10.625-15.8496 10.752-15.957ZM5.27344 2.30469L4.10156 1.14258C3.63281 0.683594 3.74023 0.341797 4.14062-0.0195312L14.9512-10.1953L16.416-8.71094L6.42578 2.27539C6.07422 2.67578 5.74219 2.77344 5.27344 2.30469Z"/>
  </g>
  <text style="stroke:none;fill:black;font-family:-apple-system,&quot;SF Pro Display&quot;,&quot;SF Pro Text&quot;,Helvetica,sans-serif;font-weight:bold;" transform="matrix(1 0 0 1 1289 1953)">Exporting</text>
  <text style="stroke:none;fill:black;font-family:-apple-system,&quot;SF Pro Display&quot;,&quot;SF Pro Text&quot;,Helvetica,sans-serif;" transform="matrix(1 0 0 1 1289 1971)">Symbols should be outlined when exporting to ensure the</text>
  <text style="stroke:none;fill:black;font-family:-apple-system,&quot;SF Pro Display&quot;,&quot;SF Pro Text&quot;,Helvetica,sans-serif;" transform="matrix(1 0 0 1 1289 1989)">design is preserved when submitting to Xcode.</text>
  <text id="template-version" style="stroke:none;fill:black;font-family:-apple-system,&quot;SF Pro Display&quot;,&quot;SF Pro Text&quot;,Helvetica,sans-serif;text-anchor:end;" transform="matrix(1 0 0 1 3036 1933)">Template v.2.0</text>
  <text style="stroke:none;fill:black;font-family:-apple-system,&quot;SF Pro Display&quot;,&quot;SF Pro Text&quot;,Helvetica,sans-serif;text-anchor:end;" transform="matrix(1 0 0 1 3036 1951)">Requires Xcode 12 or greater</text>
  <text style="stroke:none;fill:black;font-family:-apple-system,&quot;SF Pro Display&quot;,&quot;SF Pro Text&quot;,Helvetica,sans-serif;text-anchor:end;" transform="matrix(1 0 0 1 3036 1969)">Generated from music.note</text>
  <text style="stroke:none;fill:black;font-family:-apple-system,&quot;SF Pro Display&quot;,&quot;SF Pro Text&quot;,Helvetica,sans-serif;text-anchor:end;" transform="matrix(1 0 0 1 3036 1987)">Typeset at 100 points</text>
  <text style="stroke:none;fill:black;font-family:-apple-system,&quot;SF Pro Display&quot;,&quot;SF Pro Text&quot;,Helvetica,sans-serif;" transform="matrix(1 0 0 1 263 726)">Small</text>
  <text style="stroke:none;fill:black;font-family:-apple-system,&quot;SF Pro Display&quot;,&quot;SF Pro Text&quot;,Helvetica,sans-serif;" transform="matrix(1 0 0 1 263 1156)">Medium</text>
  <text style="stroke:none;fill:black;font-family:-apple-system,&quot;SF Pro Display&quot;,&quot;SF Pro Text&quot;,Helvetica,sans-serif;" transform="matrix(1 0 0 1 263 1586)">Large</text>
 </g>
 <g id="Guides">
  <g id="H-reference" style="fill:#27AAE1;stroke:none;" transform="matrix(1 0 0 1 339 696)">
   <path d="M0.976562 0L3.66211 0L12.9883-24.4629L45.752-24.4629L55.127 0L57.7637 0L30.6152-70.459L28.125-70.459ZM29.3457-67.1387L29.4434-67.1387L44.873-26.709L13.8672-26.709Z"/>
  </g>
  <line id="Baseline-S" style="fill:none;stroke:#27AAE1;opacity:1;stroke-width:0.5;" x1="263" x2="3036" y1="696" y2="696"/>
  <line id="Capline-S" style="fill:none;stroke:#27AAE1;opacity:1;stroke-width:0.5;" x1="263" x2="3036" y1="625.541" y2="625.541"/>
  <g id="H-reference" style="fill:#27AAE1;stroke:none;" transform="matrix(1 0 0 1 339 1126)">
   <path d="M0.976562 0L3.66211 0L12.9883-24.4629L45.752-24.4629L55.127 0L57.7637 0L30.6152-70.459L28.125-70.459ZM29.3457-67.1387L29.4434-67.1387L44.873-26.709L13.8672-26.709Z"/>
  </g>
  <line id="Baseline-M" style="fill:none;stroke:#27AAE1;opacity:1;stroke-width:0.5;" x1="263" x2="3036" y1="1126" y2="1126"/>
  <line id="Capline-M" style="fill:none;stroke:#27AAE1;opacity:1;stroke-width:0.5;" x1="263" x2="3036" y1="1055.54" y2="1055.54"/>
  <g id="H-reference" style="fill:#27AAE1;stroke:none;" transform="matrix(1 0 0 1 339 1556)">
   <path d="M0.976562 0L3.66211 0L12.9883-24.4629L45.752-24.4629L55.127 0L57.7637 0L30.6152-70.459L28.125-70.459ZM29.3457-67.1387L29.4434-67.1387L44.873-26.709L13.8672-26.709Z"/>
  </g>
  <line id="Baseline-L" style="fill:none;stroke:#27AAE1;opacity:1;stroke-width:0.5;" x1="263" x2="3036" y1="1556" y2="1556"/>
  <line id="Capline-L" style="fill:none;stroke:#27AAE1;opacity:1;stroke-width:0.5;" x1="263" x2="3036" y1="1485.54" y2="1485.54"/>
  <line id="left-margin" style="fill:none;stroke:#00AEEF;stroke-width:0.5;opacity:1.0;" x1="1407.61" x2="1407.61" y1="1030.79" y2="1150.12"/>
  <line id="right-margin" style="fill:none;stroke:#00AEEF;stroke-width:0.5;opacity:1.0;" x1="1492.08" x2="1492.08" y1="1030.79" y2="1150.12"/>
 </g>
 <g id="Symbols">
  <g id="Black-L" transform="matrix(1 0 0 1 2874.78 1556)">
   <path d="M101.172-69.1406L101.172-92.5781C101.172-97.8516 96.6797-101.514 91.5527-100.391L58.5449-93.2129C52.8809-91.9922 49.8535-88.7207 49.8535-83.7402L49.8535-14.6973C49.9512-12.8906 49.3164-12.0117 47.9004-11.7188L37.5977-9.57031C23.3887-6.64062 16.0645 1.02539 16.0645 12.5C16.0645 24.3164 24.8535 32.3242 37.5 32.3242C51.5137 32.3242 64.1602 21.5332 64.1602 4.54102L64.1602-53.6133C64.1602-55.5176 63.6719-55.0781 65.5273-55.5176L95.4102-62.0605C98.877-62.7441 101.172-65.5762 101.172-69.1406Z"/>
  </g>
  <g id="Heavy-L" transform="matrix(1 0 0 1 2579.27 1556)">
   <path d="M98.7793-68.8477L98.7793-92.2852C98.7793-97.0703 94.7754-100.342 90.1367-99.3164L57.4707-92.2363C52.2949-91.1133 49.4629-88.1348 49.4629-83.5449L49.5117-14.4043C49.6582-12.2559 48.7793-11.084 47.0703-10.6934L36.7676-8.59375C23.0469-5.76172 16.0645 1.5625 16.0645 12.5977C16.0645 23.7793 24.4629 31.4941 36.5234 31.4941C49.4141 31.4941 62.2559 21.6797 62.2559 4.44336L62.2559-53.4668C62.2559-55.7617 62.0605-55.6152 64.2578-56.1035L93.6523-62.5488C96.7773-63.1836 98.7793-65.7227 98.7793-68.8477Z"/>
  </g>
  <g id="Bold-L" transform="matrix(1 0 0 1 2283.87 1556)">
   <path d="M96.1426-68.6035L96.1426-91.9434C96.1426-96.1914 92.627-99.0234 88.5254-98.1445L56.2988-91.1133C51.6113-90.0879 49.0723-87.4512 49.0723-83.3496L49.1699-14.0625C49.3164-11.5234 48.1934-10.0098 46.0449-9.57031L35.8887-7.4707C22.6074-4.73633 16.0645 2.19727 16.0645 12.6465C16.0645 23.2422 24.0234 30.5176 35.498 30.5176C47.0703 30.5176 60.1562 21.7773 60.1562 4.29688L60.1562-53.2715C60.1562-56.0059 60.2539-56.2012 62.793-56.7871L91.6504-63.0859C94.3848-63.6719 96.1426-65.8203 96.1426-68.6035Z"/>
  </g>
  <g id="Semibold-L" transform="matrix(1 0 0 1 1988.07 1556)">
   <path d="M94.3359-68.4082L94.3359-91.748C94.3359-95.5566 91.1621-98.0957 87.4512-97.3145L55.4688-90.332C51.123-89.4043 48.7793-87.0117 48.7793-83.1543L48.877-13.8672C49.1211-11.0352 47.8027-9.27734 45.4102-8.78906L35.3027-6.68945C22.3633-4.00391 16.0645 2.63672 16.0645 12.6953C16.0645 22.8516 23.7793 29.8828 34.7656 29.8828C45.459 29.8828 58.6914 21.875 58.6914 4.19922L58.6914-53.1738C58.6914-56.2012 59.0332-56.6406 61.7676-57.2266L90.332-63.4766C92.7734-64.0137 94.3359-65.918 94.3359-68.4082Z"/>
  </g>
  <g id="Medium-L" transform="matrix(1 0 0 1 1692.06 1556)">
   <path d="M92.9199-68.2617L92.9199-91.5527C92.9199-95.1172 90.0879-97.4121 86.6211-96.6797L54.834-89.7949C50.7812-88.916 48.584-86.6699 48.584-83.0566L48.7305-13.6719C48.9258-10.6934 47.5098-8.74023 44.873-8.20312L34.8145-6.10352C22.168-3.4668 16.0645 2.97852 16.0645 12.7441C16.0645 22.5586 23.5352 29.3457 34.1797 29.3457C44.1895 29.3457 57.5684 21.9727 57.5684 4.15039L57.5684-53.0762C57.5684-56.2988 58.0566-56.9336 61.0352-57.5684L89.2578-63.7695C91.5039-64.2578 92.9199-65.9668 92.9199-68.2617Z"/>
  </g>
  <g id="Regular-L" transform="matrix(1 0 0 1 1396.26 1556)">
   <path d="M91.1133-68.0664L91.1133-91.3574C91.1133-94.4824 88.623-96.5332 85.5469-95.8984L54.0039-89.0137C50.293-88.2324 48.291-86.1816 48.291-82.9102L48.4375-13.4766C48.7305-10.2051 47.1191-8.00781 44.2383-7.42188L34.2285-5.32227C21.875-2.7832 16.0645 3.41797 16.0645 12.793C16.0645 22.168 23.2422 28.7109 33.4961 28.7109C42.627 28.7109 56.1035 22.0703 56.1035 4.05273L56.1035-52.9785C56.1035-56.4941 56.8359-57.3242 60.0586-58.0566L87.9395-64.1602C89.8926-64.5996 91.1133-66.0645 91.1133-68.0664Z"/>
  </g>
  <g id="Light-L" transform="matrix(1 0 0 1 1100.74 1556)">
   <path d="M88.7207-67.5293L88.7207-90.332C88.7207-93.2129 86.4258-95.0684 83.5938-94.4824L53.2227-87.8906C49.9512-87.207 48.1445-85.3516 48.1445-82.373L48.3887-13.8184C48.584-10.3027 46.7773-7.91016 43.6523-7.27539L33.6914-5.17578C21.7285-2.73438 16.0645 3.17383 16.0645 12.3047C16.0645 21.3379 22.9492 27.5879 32.8125 27.5879C41.7969 27.5879 54.834 21.1914 54.834 3.61328L54.834-52.6367C54.834-56.3477 55.7129-57.4219 59.1797-58.2031L85.791-64.0137C87.5977-64.4043 88.7207-65.7227 88.7207-67.5293Z"/>
  </g>
  <g id="Thin-L" transform="matrix(1 0 0 1 805.641 1556)">
   <path d="M85.498-66.8945L85.498-88.9648C85.498-91.5039 83.4961-93.1152 81.0059-92.627L52.1484-86.4258C49.4141-85.791 47.9492-84.2285 47.9492-81.6895L48.3398-14.3066C48.3887-10.4492 46.3379-7.8125 42.8711-7.08008L32.959-4.98047C21.582-2.63672 16.0645 2.83203 16.0645 11.6211C16.0645 20.2148 22.5098 26.0742 31.9824 26.0742C40.7227 26.0742 53.125 20.0195 53.125 3.02734L53.125-52.1484C53.125-56.1523 54.1992-57.5195 58.0078-58.3984L83.0078-63.8672C84.5703-64.209 85.498-65.2832 85.498-66.8945Z"/>
  </g>
  <g id="Ultralight-L" transform="matrix(1 0 0 1 509.736 1556)">
   <path d="M83.8867-66.5527L83.8867-88.2324C83.8867-90.6738 82.0312-92.1387 79.6875-91.6504L51.5625-85.6445C49.1699-85.1074 47.8516-83.6426 47.8516-81.3477L48.291-14.5508C48.2422-10.5469 46.0938-7.71484 42.4805-6.98242L32.6172-4.88281C21.4844-2.58789 16.0645 2.68555 16.0645 11.2793C16.0645 19.6289 22.3145 25.3418 31.543 25.3418C40.1855 25.3418 52.2461 19.4336 52.2461 2.68555L52.2461-51.8555C52.2461-56.0547 53.418-57.5684 57.4219-58.4961L81.543-63.7695C83.0078-64.0625 83.8867-65.0879 83.8867-66.5527Z"/>
  </g>
  <g id="Black-M" transform="matrix(1 0 0 1 2887.04 1126)">
   <path d="M80.2734-61.5723L80.2734-79.4922C80.2734-84.1309 76.3184-87.4512 71.7773-86.4258L46.3867-80.8594C41.6016-79.8828 39.0137-77.0508 39.0137-72.8516L39.0137-19.9219C39.0137-18.7988 38.7207-18.457 38.0371-18.3105L29.8828-16.6016C18.5059-14.3066 12.4512-8.05664 12.4512 1.41602C12.4512 11.1328 19.5801 17.6758 29.9805 17.6758C42.334 17.6758 51.6113 8.10547 51.6113-4.49219L51.6113-49.4629C51.6113-50.5371 50.9277-49.9023 52.0508-50.2441L75.1953-55.2734C78.2715-55.9082 80.2734-58.3984 80.2734-61.5723Z"/>
  </g>
  <g id="Heavy-M" transform="matrix(1 0 0 1 2591.3 1126)">
   <path d="M78.3203-61.4258L78.3203-79.4434C78.3203-83.6426 74.8047-86.5234 70.752-85.6445L45.4102-80.0781C41.0645-79.1504 38.6719-76.6113 38.6719-72.7539L38.6719-19.4824C38.7695-18.1152 38.2324-17.4805 37.207-17.2363L29.1992-15.5762C18.1641-13.2812 12.4512-7.37305 12.4512 1.61133C12.4512 10.791 19.2383 17.041 29.1016 17.041C40.2344 17.041 49.8535 8.49609 49.8535-4.49219L49.8535-49.4141C49.8535-50.8301 49.4629-50.4883 50.8789-50.8301L73.8281-55.8594C76.5625-56.3965 78.3203-58.6426 78.3203-61.4258Z"/>
  </g>
  <g id="Bold-M" transform="matrix(1 0 0 1 2295.67 1126)">
   <path d="M76.1719-61.2793L76.1719-79.3945C76.1719-83.0078 73.1445-85.498 69.6289-84.7168L44.3359-79.1992C40.4297-78.3691 38.2812-76.123 38.2812-72.6562L38.3301-19.043C38.4277-17.2852 37.6953-16.3086 36.2793-16.0156L28.3691-14.3555C17.7734-12.207 12.4512-6.5918 12.4512 1.85547C12.4512 10.4492 18.8965 16.3086 28.125 16.3086C37.8906 16.3086 47.9004 8.88672 47.9004-4.49219L47.9004-49.3164C47.9004-51.1719 47.8027-51.123 49.5605-51.5137L72.2656-56.4941C74.6094-56.9824 76.1719-58.8867 76.1719-61.2793Z"/>
  </g>
  <g id="Semibold-M" transform="matrix(1 0 0 1 1999.71 1126)">
   <path d="M74.6582-61.1328L74.6582-79.3945C74.6582-82.6172 71.9727-84.7656 68.7988-84.1309L43.6035-78.6133C39.9902-77.832 37.9883-75.7812 37.9883-72.6074L38.0371-18.7012C38.2324-16.748 37.3535-15.5273 35.6934-15.2344L27.7832-13.5742C17.5293-11.4258 12.4512-6.05469 12.4512 2.00195C12.4512 10.1562 18.6523 15.8203 27.4902 15.8203C36.2793 15.8203 46.582 9.17969 46.582-4.54102L46.582-49.2676C46.582-51.416 46.6797-51.5625 48.6328-52.002L71.1914-56.9336C73.291-57.373 74.6582-59.0332 74.6582-61.1328Z"/>
  </g>
  <g id="Medium-M" transform="matrix(1 0 0 1 1703.59 1126)">
   <path d="M73.4863-61.0352L73.4863-79.3457C73.4863-82.2754 71.0938-84.2285 68.2129-83.6426L43.0664-78.1738C39.6484-77.4414 37.793-75.5371 37.793-72.5098L37.8418-18.457C38.0371-16.3086 37.0605-14.9414 35.2051-14.5996L27.3926-12.9395C17.2852-10.8398 12.4512-5.66406 12.4512 2.09961C12.4512 10.0098 18.457 15.4297 26.9531 15.4297C35.0586 15.4297 45.5566 9.375 45.5566-4.54102L45.5566-49.2676C45.5566-51.5625 45.8008-51.9043 47.9492-52.3438L70.4102-57.2754C72.3145-57.666 73.4863-59.1797 73.4863-61.0352Z"/>
  </g>
  <g id="Regular-M" transform="matrix(1 0 0 1 1407.61 1126)">
   <path d="M72.0215-60.9375L72.0215-79.2969C72.0215-81.8848 69.9219-83.5449 67.4316-83.0566L42.334-77.5879C39.209-76.9043 37.5-75.1953 37.5-72.4609L37.5977-18.1641C37.8418-15.7715 36.7188-14.209 34.5703-13.7695L26.8066-12.1582C17.041-10.1074 12.4512-5.12695 12.4512 2.24609C12.4512 9.7168 18.2129 14.9414 26.3184 14.9414C33.4961 14.9414 44.2383 9.66797 44.2383-4.54102L44.2383-49.2188C44.2383-51.8066 44.7266-52.3438 47.0215-52.832L69.3359-57.7148C70.9961-58.0566 72.0215-59.3262 72.0215-60.9375Z"/>
  </g>
  <g id="Light-M" transform="matrix(1 0 0 1 1112 1126)">
   <path d="M69.8242-60.498L69.8242-78.3691C69.8242-80.7617 67.9688-82.2266 65.6738-81.7871L41.6016-76.5625C38.8672-75.9766 37.4023-74.4629 37.4023-72.0215L37.5488-18.457C37.6953-15.8691 36.4258-14.1113 34.082-13.623L26.3672-12.0117C16.8945-10.0586 12.4512-5.37109 12.4512 1.80664C12.4512 8.98438 17.9199 13.9648 25.7324 13.9648C32.7637 13.9648 43.0664 8.88672 43.0664-4.93164L43.0664-48.877C43.0664-51.6602 43.7012-52.3926 46.2402-52.9297L67.4316-57.6172C68.9453-57.9102 69.8242-59.0332 69.8242-60.498Z"/>
  </g>
  <g id="Thin-M" transform="matrix(1 0 0 1 816.725 1126)">
   <path d="M66.9434-59.9121L66.9434-77.1484C66.9434-79.248 65.332-80.5176 63.3301-80.127L40.625-75.1953C38.4277-74.707 37.207-73.4375 37.207-71.3867L37.4512-18.8965C37.5488-16.0156 35.9863-14.0137 33.3984-13.4766L25.7324-11.8652C16.748-10.0098 12.4512-5.66406 12.4512 1.2207C12.4512 7.95898 17.5293 12.5977 24.9512 12.5977C31.7871 12.5977 41.5527 7.86133 41.5527-5.46875L41.5527-48.4375C41.5527-51.4648 42.334-52.4902 45.2148-53.125L64.9414-57.4707C66.2109-57.7148 66.9434-58.6426 66.9434-59.9121Z"/>
  </g>
  <g id="Ultralight-M" transform="matrix(1 0 0 1 520.746 1126)">
   <path d="M65.4785-59.6191L65.4785-76.5137C65.4785-78.4668 64.0137-79.6387 62.1582-79.248L40.1367-74.5117C38.1836-74.1211 37.1094-72.9492 37.1094-71.0938L37.4512-19.1406C37.4512-16.0645 35.791-13.9648 33.0566-13.3789L25.3906-11.7676C16.6992-9.96094 12.4512-5.81055 12.4512 0.927734C12.4512 7.4707 17.3828 11.9141 24.5605 11.9141C31.2988 11.9141 40.7227 7.32422 40.7227-5.76172L40.7227-48.1934C40.7227-51.416 41.6016-52.5391 44.6777-53.2227L63.623-57.373C64.7949-57.6172 65.4785-58.4473 65.4785-59.6191Z"/>
  </g>
  <g id="Black-S" transform="matrix(1 0 0 1 2897.12 696)">
   <path d="M62.793-55.8594L62.793-69.9219C62.793-73.5352 59.7168-76.0742 56.2012-75.293L36.2793-70.9473C32.5684-70.166 30.5664-67.9688 30.5664-64.6973L30.5664-23.1934C30.5664-22.3145 30.3223-22.0215 29.7363-21.875L23.3887-20.5566C14.502-18.75 9.76562-13.8672 9.76562-6.49414C9.76562 1.07422 15.332 6.20117 23.4375 6.20117C33.0078 6.20117 40.332-1.2207 40.332-11.1328L40.332-46.3867C40.332-47.2656 39.7949-46.7773 40.7227-47.0215L58.8379-50.9766C61.2305-51.4648 62.793-53.418 62.793-55.8594Z"/>
  </g>
  <g id="Heavy-S" transform="matrix(1 0 0 1 2601.04 696)">
   <path d="M61.5234-55.8105L61.5234-69.9707C61.5234-73.2422 58.7891-75.5371 55.6152-74.8047L35.6445-70.459C32.1777-69.7266 30.3223-67.7246 30.3223-64.6973L30.3223-22.8516C30.3711-21.7773 29.9805-21.2402 29.1992-21.0938L22.9004-19.7754C14.2578-18.0176 9.76562-13.3301 9.76562-6.29883C9.76562 0.927734 15.1367 5.81055 22.8516 5.81055C31.4941 5.81055 39.1113-0.878906 39.1113-11.084L39.1113-46.3867C39.1113-47.5098 38.7695-47.2168 39.8926-47.4609L58.0078-51.416C60.1562-51.8555 61.5234-53.6133 61.5234-55.8105Z"/>
  </g>
  <g id="Bold-S" transform="matrix(1 0 0 1 2305.02 696)">
   <path d="M60.1562-55.7129L60.1562-70.0684C60.1562-72.9492 57.7148-74.9023 54.9316-74.3164L34.9121-69.9219C31.7383-69.2383 30.0293-67.4316 30.0293-64.6484L30.0293-22.4609C30.127-21.1426 29.6387-20.4102 28.5645-20.166L22.3145-18.8965C13.9648-17.1387 9.76562-12.6953 9.76562-6.05469C9.76562 0.732422 14.8926 5.37109 22.168 5.37109C29.7852 5.37109 37.793-0.439453 37.793-11.084L37.793-46.3379C37.793-47.7539 37.6465-47.7051 38.9648-47.998L57.0312-51.9531C58.9355-52.3438 60.1562-53.8574 60.1562-55.7129Z"/>
  </g>
  <g id="Semibold-S" transform="matrix(1 0 0 1 2008.79 696)">
   <path d="M59.1797-55.6641L59.1797-70.1172C59.1797-72.7051 57.0312-74.4629 54.4922-73.9258L34.4238-69.5312C31.4453-68.8965 29.834-67.2363 29.834-64.6484L29.834-22.168C29.9805-20.7031 29.3457-19.8242 28.125-19.5801L21.9238-18.2617C13.7695-16.6016 9.76562-12.3047 9.76562-5.9082C9.76562 0.585938 14.6973 5.07812 21.7285 5.07812C28.6133 5.07812 36.8652-0.146484 36.8652-11.0352L36.8652-46.3379C36.8652-47.9492 36.8652-47.998 38.3301-48.3398L56.3965-52.2949C58.1055-52.6367 59.1797-54.0039 59.1797-55.6641Z"/>
  </g>
  <g id="Medium-S" transform="matrix(1 0 0 1 1712.45 696)">
   <path d="M58.4473-55.6641L58.4473-70.166C58.4473-72.5586 56.4453-74.1699 54.1504-73.6328L34.0332-69.2383C31.2012-68.6523 29.6875-67.0898 29.6875-64.6484L29.6875-21.9727C29.8828-20.3613 29.1504-19.3848 27.7832-19.0918L21.6309-17.8223C13.623-16.1621 9.76562-11.9629 9.76562-5.81055C9.76562 0.488281 14.5996 4.88281 21.3379 4.88281C27.7344 4.88281 36.1328 0.0488281 36.1328-11.0352L36.1328-46.3379C36.1328-48.0957 36.2793-48.291 37.8418-48.584L55.9082-52.5391C57.4219-52.8809 58.4473-54.1016 58.4473-55.6641Z"/>
  </g>
  <g id="Regular-S" transform="matrix(1 0 0 1 1416.23 696)">
   <path d="M57.4707-55.6152L57.4707-70.2148C57.4707-72.3145 55.7617-73.7305 53.6621-73.291L33.5449-68.8965C30.9082-68.3105 29.4922-66.9434 29.4922-64.6484L29.4922-21.6797C29.7363-19.9219 28.9062-18.7988 27.3438-18.5059L21.2402-17.2363C13.4277-15.5762 9.76562-11.5723 9.76562-5.61523C9.76562 0.390625 14.4043 4.58984 20.8984 4.58984C26.6113 4.58984 35.2051 0.341797 35.2051-10.9863L35.2051-46.3379C35.2051-48.291 35.5469-48.584 37.2559-48.9258L55.2734-52.9297C56.5918-53.2227 57.4707-54.248 57.4707-55.6152Z"/>
  </g>
  <g id="Light-S" transform="matrix(1 0 0 1 1120.47 696)">
   <path d="M55.5664-55.1758L55.5664-69.3848C55.5664-71.3379 54.0039-72.5586 52.1484-72.168L32.8613-67.9688C30.6152-67.4805 29.3457-66.2598 29.3457-64.209L29.4434-21.9727C29.5898-20.0195 28.6621-18.7012 26.9043-18.3594L20.8496-17.0898C13.3301-15.5273 9.76562-11.7676 9.76562-6.05469C9.76562-0.292969 14.1602 3.66211 20.4102 3.66211C25.9277 3.66211 34.1797-0.390625 34.1797-11.3281L34.1797-46.0449C34.1797-48.1445 34.6191-48.6328 36.5234-49.0723L53.5645-52.832C54.7852-53.0762 55.5664-54.0039 55.5664-55.1758Z"/>
  </g>
  <g id="Thin-S" transform="matrix(1 0 0 1 825.026 696)">
   <path d="M53.0273-54.6875L53.0273-68.3105C53.0273-69.9707 51.709-71.0449 50.0977-70.7031L32.0312-66.7969C30.1758-66.4062 29.1992-65.3809 29.1992-63.6719L29.3945-22.3633C29.4434-20.1172 28.3203-18.6035 26.3184-18.2129L20.2637-16.9434C13.1836-15.4785 9.76562-12.0117 9.76562-6.54297C9.76562-1.17188 13.8184 2.49023 19.7266 2.49023C25.0977 2.49023 32.8613-1.26953 32.8613-11.8164L32.8613-45.6543C32.8613-47.998 33.4473-48.7305 35.6445-49.2188L51.3672-52.6855C52.3926-52.8809 53.0273-53.6621 53.0273-54.6875Z"/>
  </g>
  <g id="Ultralight-S" transform="matrix(1 0 0 1 528.974 696)">
   <path d="M51.709-54.3945L51.709-67.7734C51.709-69.2871 50.5371-70.2637 49.0234-69.9707L31.5918-66.2109C29.9805-65.8691 29.1016-64.8926 29.1016-63.3789L29.3457-22.5586C29.3457-20.2148 28.125-18.5547 25.9766-18.1152L19.9707-16.8457C13.0859-15.4297 9.76562-12.1094 9.76562-6.83594C9.76562-1.66016 13.6719 1.9043 19.3848 1.9043C24.6582 1.9043 32.1289-1.75781 32.1289-12.0605L32.1289-45.459C32.1289-47.9004 32.8125-48.7793 35.1562-49.3164L50.1953-52.5879C51.1719-52.7832 51.709-53.4668 51.709-54.3945Z"/>
  </g>
 </g>
</svg>
